<svg width="359" height="126" viewBox="0 0 359 126" fill="none" xmlns="http://www.w3.org/2000/svg">
<rect x="3" y="3" width="353" height="120" rx="10" fill="#D90D0D"/>
<path d="M287.604 37.7727V23.0116H234.084L225.273 72.3061L216.568 23.0116H197.268L199.425 36.1745C197.2 32.8009 189.301 23.0116 171.91 23.0116C171.795 23.0058 152.587 23.0116 152.587 23.0116L152.507 94.8623L138.442 23.0116L113.161 23.0058L98.6091 97.4508L98.6173 23.0116H74.4183L65.6978 64.8292L57.2027 23.0116H33V103.946H52.0603V64.9352L60.7315 103.946H70.8627L79.4115 64.9352V103.946H116.153L118.375 91.4973H133.167L135.389 103.946L171.464 103.964H171.491V103.946H171.536V77.6779L175.953 77.1844L185.108 103.964H203.769L203.761 103.946H203.814L191.801 72.5664C197.884 69.1065 204.76 60.335 202.93 51.94V51.9371C202.953 52.046 214.273 104 214.273 104L236.462 103.947L251.623 30.5931V103.947H287.603V89.3926H270.528V70.8343H287.603V56.0578H270.528V37.7727H287.604ZM120.62 78.6664L125.857 44.0616L131.284 78.6664H120.62ZM176.014 62.6874C174.551 63.2287 173.027 63.4995 171.536 63.5024V37.4724C171.559 37.4724 171.594 37.4695 171.631 37.4695C173.117 37.4608 184.247 37.8136 184.247 50.3419C184.247 56.8954 180.463 61.0286 176.014 62.6874ZM326 89.3792V103.928H290.897V23H309.8V89.3792H326Z" fill="#FBF3F3"/>
<rect x="1.5" y="1.5" width="356" height="123" rx="11.5" stroke="#8C4848" stroke-opacity="0.26" stroke-width="3"/>
</svg>
